<svg width="1451" height="1456" viewBox="0 0 1451 1456" fill="none" xmlns="http://www.w3.org/2000/svg">
<path d="M1451 726.381C1451.16 900.372 1388.73 1068.62 1275.11 1200.38C1161.48 1332.15 1004.25 1418.65 832.131 1444.09H635.631C635.323 1444.36 624.43 1444.88 624.43 1444.88C622.602 1444.63 620.755 1444.36 618.927 1444.09C604.936 1442.03 591.074 1439.57 577.34 1436.72C523.563 1425.58 471.242 1408.31 421.406 1385.24C420.886 1385.01 420.386 1384.76 419.866 1384.53C392.095 1371.64 365.181 1356.98 339.292 1340.63C338.637 1340.23 338.002 1339.82 337.367 1339.42C336.27 1338.73 335.193 1338.05 334.115 1337.34C333.769 1337.13 333.422 1336.92 333.076 1336.69C309.93 1321.78 287.654 1305.56 266.357 1288.11C265.318 1287.29 264.279 1286.42 263.239 1285.57C259.063 1282.11 254.926 1278.61 250.827 1275.07C250.788 1275.05 250.769 1275.01 250.731 1274.99C229.785 1256.84 209.887 1237.51 191.132 1217.1C191.074 1217.03 190.997 1216.97 190.939 1216.89C108.551 1127.28 50.0883 1018.33 20.9569 900.135C20.726 899.289 20.5335 898.461 20.3218 897.614C6.78536 841.544 -0.0364222 784.062 0.000146239 726.381C0.000146239 325.701 324.82 0.880859 725.5 0.880859C1126.18 0.880859 1451 325.701 1451 726.381Z" fill="#3F3D56"/>
<path opacity="0.8" d="M792.572 833.41L856.02 759.131L919.469 684.851L955.287 642.92C957.269 640.6 954.21 636.98 952.229 639.3L888.78 713.579L825.331 787.858L789.514 829.79C787.532 832.11 790.59 835.73 792.572 833.41V833.41Z" fill="url(#paint0_linear)"/>
<path d="M309.739 389.424C313.286 389.424 316.162 386.548 316.162 383C316.162 379.453 313.286 376.577 309.739 376.577C306.191 376.577 303.315 379.453 303.315 383C303.315 386.548 306.191 389.424 309.739 389.424Z" fill="#CBCBCB"/>
<path d="M951.355 893.873C954.902 893.873 957.778 890.997 957.778 887.45C957.778 883.902 954.902 881.026 951.355 881.026C947.807 881.026 944.932 883.902 944.932 887.45C944.932 890.997 947.807 893.873 951.355 893.873Z" fill="#CBCBCB"/>
<path d="M320.749 453.656C324.297 453.656 327.173 450.78 327.173 447.233C327.173 443.685 324.297 440.81 320.749 440.81C317.202 440.81 314.326 443.685 314.326 447.233C314.326 450.78 317.202 453.656 320.749 453.656Z" fill="#CBCBCB"/>
<path d="M1056.62 1098.73C1060.16 1098.73 1063.04 1095.85 1063.04 1092.31C1063.04 1088.76 1060.16 1085.88 1056.62 1085.88C1053.07 1085.88 1050.19 1088.76 1050.19 1092.31C1050.19 1095.85 1053.07 1098.73 1056.62 1098.73Z" fill="#CBCBCB"/>
<path d="M345.525 416.033C348.059 416.033 350.113 413.979 350.113 411.445C350.113 408.912 348.059 406.857 345.525 406.857C342.991 406.857 340.937 408.912 340.937 411.445C340.937 413.979 342.991 416.033 345.525 416.033Z" fill="#CBCBCB"/>
<path d="M1058.88 965.826C1061.41 965.826 1063.47 963.772 1063.47 961.238C1063.47 958.704 1061.41 956.65 1058.88 956.65C1056.35 956.65 1054.29 958.704 1054.29 961.238C1054.29 963.772 1056.35 965.826 1058.88 965.826Z" fill="#CBCBCB"/>
<path d="M293.222 440.808C301.33 440.808 307.903 434.235 307.903 426.127C307.903 418.018 301.33 411.445 293.222 411.445C285.113 411.445 278.54 418.018 278.54 426.127C278.54 434.235 285.113 440.808 293.222 440.808Z" fill="#CBCBCB"/>
<path d="M832.489 1107.15C840.597 1107.15 847.17 1100.58 847.17 1092.47C847.17 1084.36 840.597 1077.79 832.489 1077.79C824.38 1077.79 817.807 1084.36 817.807 1092.47C817.807 1100.58 824.38 1107.15 832.489 1107.15Z" fill="#CBCBCB"/>
<path d="M484.978 679.791C488.779 679.791 491.861 676.709 491.861 672.908C491.861 669.107 488.779 666.025 484.978 666.025C481.177 666.025 478.096 669.107 478.096 672.908C478.096 676.709 481.177 679.791 484.978 679.791Z" fill="#6C63FF"/>
<path d="M544.629 772.746L541.194 776.158L537.782 772.723L535.492 774.997L538.904 778.432L535.469 781.844L537.743 784.134L541.178 780.722L544.59 784.157L546.88 781.883L543.468 778.448L546.904 775.036L544.629 772.746Z" fill="#E6E6E6"/>
<path d="M572.16 573.151L568.725 576.563L565.313 573.128L563.023 575.403L566.435 578.838L563 582.25L565.275 584.54L568.71 581.128L572.122 584.563L574.412 582.288L571 578.853L574.435 575.441L572.16 573.151Z" fill="#E6E6E6"/>
<path d="M658.682 194.391C651.25 199.343 643.644 187.557 651.219 182.825C658.65 177.873 666.257 189.659 658.682 194.391Z" fill="#E6E6E6"/>
<path d="M1051.08 553.705C1043.64 558.657 1036.04 546.871 1043.61 542.139C1051.04 537.188 1058.65 548.974 1051.08 553.705Z" fill="#E6E6E6"/>
<path d="M228.152 706.614L223.423 705.576L224.459 700.846L221.306 700.155L220.269 704.885L215.541 703.85L214.85 707.002L219.578 708.04L218.543 712.768L221.695 713.459L222.732 708.728L227.461 709.766L228.152 706.614Z" fill="#E6E6E6"/>
<path d="M951.727 138.914L946.999 137.877L948.034 133.147L944.882 132.456L943.845 137.186L939.117 136.151L938.426 139.303L943.154 140.34L942.119 145.069L945.271 145.759L946.308 141.029L951.036 142.067L951.727 138.914Z" fill="#E6E6E6"/>
<path d="M1321.21 444.895L1316.48 443.858L1317.52 439.127L1314.37 438.437L1313.33 443.167L1308.6 442.131L1307.91 445.284L1312.64 446.321L1311.6 451.049L1314.76 451.74L1315.79 447.01L1320.52 448.047L1321.21 444.895Z" fill="#E6E6E6"/>
<path d="M428.103 213.539L423.374 212.502L424.41 207.774L421.258 207.083L420.22 211.811L415.49 210.776L414.799 213.928L419.53 214.965L418.494 219.696L421.646 220.384L422.684 215.656L427.412 216.692L428.103 213.539Z" fill="#E6E6E6"/>
<path d="M876.257 370.612C880.058 370.612 883.14 367.53 883.14 363.729C883.14 359.928 880.058 356.847 876.257 356.847C872.456 356.847 869.375 359.928 869.375 363.729C869.375 367.53 872.456 370.612 876.257 370.612Z" fill="#6C63FF"/>
<path d="M1268.65 729.926C1272.45 729.926 1275.53 726.845 1275.53 723.044C1275.53 719.243 1272.45 716.161 1268.65 716.161C1264.85 716.161 1261.77 719.243 1261.77 723.044C1261.77 726.845 1264.85 729.926 1268.65 729.926Z" fill="#6C63FF"/>
<path d="M824.717 467.988L819.988 466.95L821.024 462.22L817.871 461.529L816.834 466.259L812.106 465.224L811.415 468.376L816.143 469.414L815.108 474.142L818.26 474.833L819.297 470.103L824.026 471.14L824.717 467.988Z" fill="#E6E6E6"/>
<path d="M1217.11 827.302L1212.38 826.265L1213.42 821.535L1210.26 820.844L1209.23 825.574L1204.5 824.539L1203.81 827.691L1208.54 828.728L1207.5 833.456L1210.65 834.147L1211.69 829.417L1216.42 830.454L1217.11 827.302Z" fill="#E6E6E6"/>
<path d="M1007.35 382.887L1002.62 381.85L1003.65 377.122L1000.5 376.431L999.466 381.159L994.735 380.124L994.044 383.276L998.775 384.313L997.739 389.043L1000.89 389.732L1001.93 385.004L1006.66 386.039L1007.35 382.887Z" fill="#E6E6E6"/>
<path d="M1399.74 742.201L1395.01 741.164L1396.05 736.436L1392.9 735.745L1391.86 740.473L1387.13 739.438L1386.44 742.59L1391.17 743.627L1390.13 748.358L1393.28 749.047L1394.32 744.318L1399.05 745.354L1399.74 742.201Z" fill="#E6E6E6"/>
<path d="M787.177 1253.42C785.83 1253.19 784.406 1252.95 782.944 1252.7C774.341 1251.32 763.969 1249.74 752.076 1248.11C751.268 1247.99 750.44 1247.87 749.594 1247.76C739.779 1246.43 728.983 1245.08 717.341 1243.76C653.508 1236.58 564.351 1230.82 473.365 1238.73C475.616 1229.69 477.695 1220.64 479.658 1211.64L392.521 1225.13L486.547 1177.31C495.404 1128.18 501.495 1078.59 504.79 1028.78L457.719 1036.06L505.849 1011.58C509.293 949.938 507.677 908.91 507.677 908.91C507.677 908.91 350.241 990.755 224.347 1115.84C219.728 1099.56 214.667 1083.49 209.279 1067.71L141.655 1124.29L197.405 1034.77C179.606 988.126 159.188 942.529 136.248 898.191L99.7227 928.75L128.281 882.911C99.3763 828.354 76.7838 794.062 76.7838 794.062C76.7838 794.062 51.016 836.283 20.3218 901.462C49.2694 1020.71 108.045 1130.65 191.132 1220.95C209.914 1241.39 229.845 1260.74 250.827 1278.91C254.926 1282.46 259.063 1285.96 263.239 1289.42C285.482 1307.83 308.802 1324.9 333.076 1340.53C334.5 1341.46 335.924 1342.36 337.367 1343.27C410.84 1389.9 492.139 1422.86 577.34 1440.56C583.325 1441.82 589.368 1442.99 595.43 1444.09C596.911 1444.36 598.393 1444.63 599.875 1444.88H624.43C624.43 1444.88 635.323 1444.36 635.631 1444.09C666.132 1417.39 693.786 1390.41 717.629 1365.55C723.056 1359.91 728.271 1354.37 733.294 1348.98L692.15 1324.99L744.956 1336.3C747.381 1333.63 749.767 1330.99 752.076 1328.41C763.931 1315.17 774.207 1303.18 782.732 1293C784.194 1291.23 785.619 1289.54 786.985 1287.88C802.515 1269.14 811.059 1257.71 811.059 1257.71C811.059 1257.71 802.476 1255.96 787.177 1253.42Z" fill="#2F2E41"/>
<path d="M1213.06 958.181C1224.75 958.181 1234.23 948.703 1234.23 937.012C1234.23 925.321 1224.75 915.844 1213.06 915.844C1201.37 915.844 1191.89 925.321 1191.89 937.012C1191.89 948.703 1201.37 958.181 1213.06 958.181Z" fill="#6C63FF"/>
<path d="M515.986 797.232C513.13 795.134 510.067 793.334 506.844 791.86C435.047 758.992 297.153 892.154 297.153 892.154L282.255 876.529C282.255 876.529 337.104 814.843 401.608 712.413C459.616 620.234 603.639 634.149 631.966 637.853C635.138 638.285 636.863 638.557 636.863 638.557C683.614 746.302 515.986 797.232 515.986 797.232Z" fill="#AFC0E0"/>
<path opacity="0.2" d="M639.988 646.66C639.08 644.013 638.077 641.345 636.891 638.624C636.891 638.624 635.186 638.372 631.994 637.921C603.668 634.216 459.645 620.301 401.636 712.481C337.133 814.91 282.257 876.528 282.257 876.528L290.634 885.315C290.634 885.315 345.53 823.678 409.987 721.2C467.716 629.436 610.751 642.828 639.988 646.66Z" fill="white"/>
<path d="M749.401 1077.24C643.967 1136.73 579.831 1188.64 579.831 1188.64L564.905 1172.99C564.905 1172.99 710.84 1035.73 672.868 963.491C672.064 961.908 671.163 960.377 670.169 958.907C670.169 958.907 729.002 793.867 834.406 845.749C834.406 845.749 834.575 847.128 834.792 849.701C837.055 875.775 845.333 1023.06 749.401 1077.24Z" fill="#AFC0E0"/>
<path d="M644.702 975.224C617.71 990.44 589.249 1005.25 559.321 1019.64C559.321 1019.64 489.198 1019.4 444.869 899.6C444.869 899.6 460.693 868.321 492.447 820.239C562.241 714.493 709.073 527.483 934.043 413.168C1001.53 378.653 1073.11 352.807 1147.08 336.243C1147.08 336.243 1138.35 430.146 1071.21 556.975C1004.07 683.804 878.451 843.54 644.702 975.224Z" fill="#E3E8F4"/>
<path d="M794.51 686.011C831.623 724.936 893.264 726.406 932.19 689.294C971.116 652.181 972.585 590.54 935.473 551.614C898.36 512.688 836.719 511.219 797.793 548.331C758.868 585.444 757.398 647.085 794.51 686.011Z" fill="#AFC0E0"/>
<path d="M912.609 668.834C903.143 677.858 891.31 684.01 878.485 686.572C865.66 689.135 852.372 688.003 840.165 683.309C827.958 678.615 817.335 670.551 809.531 660.056C801.728 649.561 797.065 637.066 796.084 624.024C795.62 617.645 796.035 611.232 797.318 604.966C797.885 602.161 798.628 599.394 799.544 596.682C803.125 586.111 809.22 576.568 817.304 568.873C817.708 568.489 818.101 568.113 818.495 567.738C829.428 557.803 843.256 551.631 857.953 550.127C872.649 548.622 887.441 551.864 900.16 559.377C904.989 562.273 909.457 565.73 913.473 569.676L914.899 571.172C921.163 577.734 926.073 585.466 929.348 593.926C932.623 602.386 934.199 611.408 933.986 620.477C933.774 629.547 931.776 638.485 928.108 646.782C924.44 655.079 919.174 662.573 912.609 668.834Z" fill="#6C63FF"/>
<path d="M1071.2 556.964C956.671 513.5 934.025 413.089 934.025 413.089C1001.52 378.6 1073.11 352.78 1147.08 336.242C1147.08 336.242 1138.35 430.145 1071.2 556.964Z" fill="#AFC0E0"/>
<path d="M644.702 975.224C626.417 985.519 607.473 995.629 587.87 1005.55C578.532 1010.3 569.022 1014.98 559.341 1019.6C559.341 1019.6 489.218 1019.37 444.889 899.561C444.889 899.561 450.025 889.404 460.284 871.734C468.063 858.419 478.771 840.866 492.438 820.171C492.438 820.171 509.081 864.638 551.85 909.496C578.177 937.299 609.73 959.635 644.702 975.224V975.224Z" fill="#AFC0E0"/>
<path opacity="0.2" d="M900.257 559.342L900.075 559.309L818.582 567.693C818.188 568.069 817.795 568.444 817.391 568.828C809.307 576.523 803.212 586.066 799.631 596.637L913.588 569.66L900.257 559.342Z" fill="white"/>
<path opacity="0.2" d="M868.999 611.271L796.124 623.986C795.66 617.607 796.075 611.194 797.358 604.928L869.151 604.101L868.999 611.271Z" fill="white"/>
<path opacity="0.2" d="M462.995 918.572C462.995 918.572 478.829 887.284 510.573 839.212C580.377 733.456 727.21 546.447 952.179 432.131C1012.96 401.107 1077.07 377.073 1143.26 360.49C1146.25 344.926 1147.04 336.223 1147.04 336.223C1073.08 352.77 1001.51 378.597 934.026 413.091C709.057 527.407 562.224 714.417 492.42 820.172C460.676 868.245 444.842 899.532 444.842 899.532C462.369 946.857 483.908 975.516 503.553 992.889C489.378 975.56 475.228 951.596 462.995 918.572Z" fill="white"/>
<path d="M990.836 1365.55V1401.83C939.718 1421.91 886.47 1436.09 832.131 1444.09C832.131 1444.09 748.982 1455.12 710.521 1455.12C672.059 1455.12 583.325 1441.82 577.34 1440.56V1365.55H990.836Z" fill="#2F2E41"/>
<defs>
<linearGradient id="paint0_linear" x1="788.872" y1="736.355" x2="955.929" y2="736.355" gradientUnits="userSpaceOnUse">
<stop stop-color="white"/>
<stop offset="1" stop-color="white" stop-opacity="0.3"/>
</linearGradient>
</defs>
</svg>
