<svg width="1497" height="1497" viewBox="0 0 1497 1497" fill="none" xmlns="http://www.w3.org/2000/svg">
<ellipse cx="748.328" cy="748.264" rx="685.64" ry="653.384" fill="url(#paint0_linear)"/>
<path d="M157.355 843.838C179.18 979.613 247.081 1103.73 349.644 1195.34C452.209 1286.95 583.182 1340.45 720.551 1346.87C857.918 1353.28 993.305 1312.2 1103.96 1230.55C1214.61 1148.89 1293.77 1031.63 1328.15 898.483C1288.46 857.879 1234.06 840.575 1214.35 835.405C1170.51 823.98 1079.17 826.289 942.908 842.287C906.471 846.543 891.13 832.951 848.177 789.331L843.319 784.463C813.865 754.644 800.451 731.639 866.611 606.765C900.268 543.31 934.077 545.414 980.997 548.385L996.503 549.18C1039.96 551.144 1057.47 541.554 1083.91 527.065C1095.81 520.567 1110.71 512.577 1132.35 503.096C1183.98 480.867 1209.17 499.799 1264.32 541.261L1270.6 545.982C1293.99 563.565 1312.86 581.307 1328.05 598.342C1304.95 509.13 1261.57 426.454 1201.28 356.749C1141 287.047 1065.45 232.195 980.498 196.467C895.55 160.74 803.504 145.099 711.522 150.762C619.542 156.426 530.11 183.242 450.188 229.123C447.632 278.976 445.145 348.168 454.943 380.345C459.94 396.738 507.954 450.81 484.604 491.584C478.516 502.175 467.832 514.646 456.501 527.85C426.138 563.259 384.624 611.632 416.598 661.135C436.815 692.53 511.557 751.525 576.175 747.764C586.504 747.103 598.933 754.854 609.291 768.352C622.861 786.043 626.089 803.543 625.95 808.214C618.284 811.438 596.309 812.894 581.385 813.941C545.475 816.251 500.629 819.24 469.501 843.212C458.176 851.926 446.579 862.121 435.208 872.017C403.642 899.686 367.879 930.944 342.935 925.768C324.649 921.945 306.09 907.901 286.468 893.15C261.525 874.398 233.349 853.218 196.838 844.87C183.892 841.779 170.445 841.427 157.355 843.838ZM1346.62 1198.11C1098.25 1528.5 629.117 1594.98 298.733 1346.62C-31.6516 1098.26 -98.1403 629.117 150.223 298.733C398.586 -31.6516 867.722 -98.1403 1198.11 150.223C1528.5 398.586 1594.98 867.722 1346.62 1198.11Z" fill="#DC3545"/>
<path d="M748.327 1027.19C787.201 1027.19 824.483 1042.63 851.971 1070.12C879.46 1097.61 894.902 1134.89 894.902 1173.76V1349.65H836.272V1173.76C836.274 1151.33 827.703 1129.75 812.313 1113.42C796.924 1097.1 775.88 1087.28 753.486 1085.96L748.327 1085.82C725.895 1085.82 704.31 1094.39 687.989 1109.78C671.668 1125.16 661.844 1146.21 660.528 1168.6L660.382 1173.76V1349.65H601.751V1173.76C601.751 1134.89 617.194 1097.61 644.682 1070.12C672.171 1042.63 709.453 1027.19 748.327 1027.19ZM557.779 1115.13C565.958 1115.13 573.902 1116.1 581.524 1117.89C576.512 1132.81 573.543 1148.34 572.7 1164.06L572.436 1173.76V1176.28C569.067 1175.08 565.562 1174.29 562 1173.94L557.779 1173.76C546.848 1173.76 536.309 1177.83 528.217 1185.18C520.125 1192.53 515.061 1202.63 514.011 1213.51L513.806 1217.73V1349.65H455.176V1217.73C455.176 1190.52 465.986 1164.43 485.227 1145.18C504.469 1125.94 530.567 1115.13 557.779 1115.13V1115.13ZM938.875 1115.13C966.087 1115.13 992.185 1125.94 1011.43 1145.18C1030.67 1164.43 1041.48 1190.52 1041.48 1217.73V1349.65H982.848V1217.73C982.847 1206.8 978.775 1196.26 971.426 1188.17C964.077 1180.08 953.977 1175.02 943.096 1173.97L938.875 1173.76C933.745 1173.76 928.82 1174.64 924.218 1176.25V1173.76C924.218 1154.24 921.052 1135.48 915.159 1117.95C922.752 1116.1 930.696 1115.13 938.875 1115.13ZM557.779 939.241C577.216 939.241 595.857 946.963 609.601 960.707C623.345 974.451 631.066 993.092 631.066 1012.53C631.066 1031.97 623.345 1050.61 609.601 1064.35C595.857 1078.1 577.216 1085.82 557.779 1085.82C538.342 1085.82 519.701 1078.1 505.956 1064.35C492.212 1050.61 484.491 1031.97 484.491 1012.53C484.491 993.092 492.212 974.451 505.956 960.707C519.701 946.963 538.342 939.241 557.779 939.241V939.241ZM938.875 939.241C958.312 939.241 976.953 946.963 990.697 960.707C1004.44 974.451 1012.16 993.092 1012.16 1012.53C1012.16 1031.97 1004.44 1050.61 990.697 1064.35C976.953 1078.1 958.312 1085.82 938.875 1085.82C919.438 1085.82 900.797 1078.1 887.053 1064.35C873.309 1050.61 865.587 1031.97 865.587 1012.53C865.587 993.092 873.309 974.451 887.053 960.707C900.797 946.963 919.438 939.241 938.875 939.241V939.241ZM557.779 997.871C553.891 997.871 550.163 999.416 547.414 1002.16C544.665 1004.91 543.121 1008.64 543.121 1012.53C543.121 1016.42 544.665 1020.14 547.414 1022.89C550.163 1025.64 553.891 1027.19 557.779 1027.19C561.666 1027.19 565.394 1025.64 568.143 1022.89C570.892 1020.14 572.436 1016.42 572.436 1012.53C572.436 1008.64 570.892 1004.91 568.143 1002.16C565.394 999.416 561.666 997.871 557.779 997.871ZM938.875 997.871C934.988 997.871 931.26 999.416 928.511 1002.16C925.762 1004.91 924.218 1008.64 924.218 1012.53C924.218 1016.42 925.762 1020.14 928.511 1022.89C931.26 1025.64 934.988 1027.19 938.875 1027.19C942.763 1027.19 946.491 1025.64 949.24 1022.89C951.988 1020.14 953.533 1016.42 953.533 1012.53C953.533 1008.64 951.988 1004.91 949.24 1002.16C946.491 999.416 942.763 997.871 938.875 997.871ZM748.327 763.351C779.426 763.351 809.252 775.705 831.243 797.695C853.233 819.686 865.587 849.512 865.587 880.611C865.587 911.71 853.233 941.536 831.243 963.527C809.252 985.517 779.426 997.871 748.327 997.871C717.228 997.871 687.402 985.517 665.411 963.527C643.421 941.536 631.066 911.71 631.066 880.611C631.066 849.512 643.421 819.686 665.411 797.695C687.402 775.705 717.228 763.351 748.327 763.351V763.351ZM748.327 821.981C732.777 821.981 717.864 828.158 706.869 839.153C695.874 850.149 689.697 865.061 689.697 880.611C689.697 896.161 695.874 911.074 706.869 922.069C717.864 933.064 732.777 939.241 748.327 939.241C763.877 939.241 778.789 933.064 789.785 922.069C800.78 911.074 806.957 896.161 806.957 880.611C806.957 865.061 800.78 850.149 789.785 839.153C778.789 828.158 763.877 821.981 748.327 821.981V821.981Z" fill="#DC3545"/>
<defs>
<linearGradient id="paint0_linear" x1="772.934" y1="1474.15" x2="748.328" y2="-24.5613" gradientUnits="userSpaceOnUse">
<stop offset="0.0234684" stop-color="#343A40"/>
<stop offset="1" stop-color="#7D8893"/>
</linearGradient>
</defs>
</svg>
