<svg width="1250" height="1251" viewBox="0 0 1250 1251" fill="none" xmlns="http://www.w3.org/2000/svg">
<path d="M551.36 882.903L644.556 789.708L644.847 789.416C657.419 778.058 926.859 560.603 663.632 307.617C542.672 203.986 354.437 219.519 230.032 361.01L21.7987 569.291C7.84096 583.254 0 602.189 0 621.932C0 641.675 7.84096 660.61 21.7987 674.573L576.213 1229.08C583.151 1236.03 591.39 1241.54 600.46 1245.3C609.53 1249.06 619.253 1251 629.072 1251C638.89 1251 648.613 1249.06 657.683 1245.3C666.753 1241.54 674.993 1236.03 681.931 1229.08L789.736 1121.28L551.36 882.903ZM504.229 639.77L502.967 641.032L427.149 717.045C424.892 719.327 422.205 721.138 419.243 722.375C416.281 723.611 413.103 724.248 409.893 724.248C406.684 724.248 403.506 723.611 400.544 722.375C397.582 721.138 394.895 719.327 392.638 717.045L294.103 618.559C291.821 616.302 290.009 613.614 288.773 610.652C287.536 607.69 286.9 604.513 286.9 601.303C286.9 598.093 287.536 594.915 288.773 591.954C290.009 588.992 291.821 586.304 294.103 584.047L366.572 511.578L373.61 504.54C394.336 485.125 457.68 436.586 518.742 497.648C574.659 563.758 515.539 628.218 504.229 639.77Z" fill="url(#paint0_linear)"/>
<path d="M1228.04 683.164L1063.55 847.711V847.469L1062.57 848.391C1023.74 889.406 979.378 922.656 925.403 941.052C872.008 959.34 813.834 957.928 761.389 937.072C719.408 920.895 680.759 897.137 647.371 866.981C636.207 857.273 618.83 839.654 607.909 829.655C603.055 825.48 604.22 822.131 607.617 817.957C636.741 782.038 672.417 753.011 701.249 716.995C715.811 698.648 730.373 680.203 744.934 661.515C748.866 656.661 751.196 658.312 754.351 661.515C769.672 677.528 786.226 692.313 803.861 705.734C822.112 719.131 841.382 730.344 865.409 730.441C882.71 729.967 899.21 723.042 911.666 711.025C914.627 708.307 917.879 705.929 920.986 703.405C923.801 696.269 930.305 691.998 934.577 685.93C940.731 677.767 944.391 667.996 945.115 657.798C945.838 647.6 943.595 637.411 938.654 628.46C930.111 610.792 916.617 596.91 902.978 583.222C755.257 434.854 607.342 286.648 459.233 138.603C457.923 137.293 456.467 136.225 455.107 135.06L567.427 22.692C574.343 15.7663 582.556 10.2718 591.597 6.52305C600.637 2.77428 610.329 0.844727 620.116 0.844727C629.903 0.844727 639.595 2.77428 648.636 6.52305C657.677 10.2718 665.89 15.7663 672.805 22.692C791.532 141.225 910.113 259.886 1028.55 378.678V377.659L1228.04 577.64C1234.98 584.564 1240.48 592.789 1244.24 601.842C1247.99 610.896 1249.92 620.601 1249.92 630.402C1249.92 640.203 1247.99 649.908 1244.24 658.961C1240.48 668.015 1234.98 676.239 1228.04 683.164V683.164Z" fill="url(#paint1_linear)"/>
<defs>
<linearGradient id="paint0_linear" x1="112.518" y1="966.875" x2="944.139" y2="522.16" gradientUnits="userSpaceOnUse">
<stop stop-color="#FB8136"/>
<stop offset="0.51" stop-color="#F36A1D"/>
<stop offset="1" stop-color="#EA5101"/>
</linearGradient>
<linearGradient id="paint1_linear" x1="1109.22" y1="242.817" x2="449.72" y2="686.707" gradientUnits="userSpaceOnUse">
<stop stop-color="#CE84E1"/>
<stop offset="0.21" stop-color="#C77EDA"/>
<stop offset="0.52" stop-color="#B36DC7"/>
<stop offset="0.88" stop-color="#9351A9"/>
<stop offset="1" stop-color="#87479D"/>
</linearGradient>
</defs>
</svg>
