<svg id="Layer_2" data-name="Layer 2" xmlns="http://www.w3.org/2000/svg" viewBox="0 0 1449 1449"><defs><style>.cls-1{fill:#ac619c;}.cls-2{fill:#ad629c;}.cls-3{fill:#af669f;}.cls-4{fill:#b26ba2;}.cls-5{fill:#b169a1;}.cls-6{fill:#cc9ec2;}.cls-7{fill:#e7d1e2;}.cls-8{fill:#bc7faf;}.cls-9{fill:#b979aa;}.cls-10{fill:#b674a7;}.cls-11{fill:#b978aa;}.cls-12{fill:#ac619b;}.cls-13{fill:#b877a9;}.cls-14{fill:#ae649e;}.cls-15{fill:#ae659d;}.cls-16{fill:#dbbad3;}.cls-17{fill:#efe0ec;}.cls-18{fill:none;stroke:#ac619c;stroke-miterlimit:10;stroke-width:55px;}</style></defs><path class="cls-1" d="M531,1039.83c-5.68,42.87-33.31,71.33-64.52,97.49-6.72,5.62-14.54,9.79-20.57,1.43-4.52-6.26,1.44-13.54,6.81-16.61,49.36-28.24,49.72-85.62,77.1-126.78,7.9-11.87,3.29-19.42-4.51-27.86-41.52-45-42.44-99.78-32.34-154.35,10.29-55.54,1.18-104.89-30.42-150.95-3.77-5.49-6.81-11.46-10.51-17-14.41-21.56-31.29-46.47-10.23-68.75,20.23-21.39,47.28-6.67,71,2.43,20.44,7.85,42.49,29.43,62.55,12.55,18.63-15.69-1.66-38.65-6-57.81q-16.64-73.87-37.3-146.84c-10.37-36.29,1.51-58.36,36.1-71.93,55.08-21.61,112-23.4,169.84-18.89,30.2,2.35,36.24,23.52,37.64,47.36,3.67,62.44,6.25,125,9.83,187.4.56,9.75-4.79,24,8.47,27.76,12.72,3.64,16.25-11.19,23.2-18.42,9.22-9.58,16.91-20.68,26.47-29.87,40.22-38.64,69.09-33,96,18.1,3.33,14.33,12.79,29.84-7.63,39.64-.63-2.59-1.14-5.21-1.9-7.75-6.81-22.85-11.74-52.84-40.05-52.58-27.92.26-43.07,28.63-59.67,49.22-8.13,10.07.76,16.57,7.31,23.37,25,25.89,13.7,48.37-7.72,68.89-51.66,49.48-202.62,71.43-266.73,38.83-20-10.14-35.46-23.38-32.92-49.37,2.41-24.62-41.71-60.13-65.32-51.26-22.77,8.55-8.45,24.82-2,36,19.08,33.09,37.85,64.91,50,102.64,13.09,40.82.88,76-3.29,113.16-4.54,40.4,2.06,76.26,26.78,109.06,18.34,24.33,36.13,44.47,72.54,36.12,12.13-2.79,31.85-.51,41.59,15.51-6.36,5.3-6.06,10.81-.51,16.48,3.61,9.67,35.72,24.92,46,21.3,17.89-6.34,17.65-16.16,6.13-29.44-6.36-7.33-3.33-14.87,5-19.53,11.05-6.16,23-6.56,34.72-3,8.44,2.55,14.26,9.25,9.1,18-6.75,11.42-12.27,21.47,5.94,26,19.31,4.77,37.07-1.1,47.86-16.77C812.13,1002,819,990.33,823.67,977c12.37-35.61,46.09-4.21,66.34-18,9.14-4,10.54.7,9.41,8.27-13.57,11.47-36.84,6.24-49.26,30.23l88,4.59c-28.84,19.48-52.76,10.35-74.79,12.48-12.2,1.17-27.28-.16-29.1,14.36-1.77,14.25,12.65,16.08,24.28,19.62,14.82,4.51,28.69,12.11,43.79,18.73-20.81,15.34-38.76-8.27-58.18-3.28a12.33,12.33,0,0,1-10.51,2.94c-15.16-8.26-29.49-7.78-43.7,2.83-14.82,11.07-31.22,18.83-50.22,20-37.78,2.08-71.13-13.58-105.34-25.78l-3.64-.21-3.62.42c-8.7,3.73-9.86-.66-8.47-7.79,13.47-11.89,1.17-17.08-6.18-23.56-7.36,2.84-14.49,4.42-19.92-3.51-2.93-28.71-20.92-20.44-36.07-13.12C546.2,1021.13,539.39,1031.72,531,1039.83Z" transform="translate(-25.5 -25.5)"/><path class="cls-2" d="M834.09,1063.32l10.1.63c13.67,35.32,12.71,72.58,14.33,109.45,1.07,24.34-11.16,26-30.49,17.58-27-11.8-51.35-22.74-85.37-20-28.06,2.25-42,18.12-62.12,27.39-25,11.51-39.65,14.21-39-21.51.56-31.71-3.93-63.5-6.19-95.26,12.45-15.1,29-12.46,42.25-5,22.93,13,46.56,13.47,71.19,11.31,16.73,2.59,31-2.2,44.82-12.1C805.25,1067.49,817.9,1058.7,834.09,1063.32Z" transform="translate(-25.5 -25.5)"/><path class="cls-3" d="M932,567.93c13-11.23,5.73-26.3,7.63-39.64,2.55,4.51,7.51,9.15,7.29,13.52-3.78,75.75,29.35,142.07,53.79,210.55,17.76,49.78,22,101.2,18.64,153.25-2.5,38.6,4.45,73.18,28.42,104.88,19,25.17,21,56.92,25.83,87,1.74,10.74-1.87,20.74-11.37,27.15-14.15-4-9.67-15-10.12-23.39-1.31-24.13-2.62-50.8-16.84-68.81C995.46,982,992.78,924.91,996.78,865.9c3.53-52.08-13-99.54-30.72-146.86-3.27-8.7-2.09-28-22.27-11.56-8.78,7.16-14-5-12.18-12.85C941.42,652.32,925.52,610.1,932,567.93Z" transform="translate(-25.5 -25.5)"/><path class="cls-4" d="M820.74,815.19c-33.2,0-55.06,19.73-55.34,49.62-.22,23.44,12.15,33.63,33.09,32.07,34.84.46,57.42-21.22,59.17-53.18C859.2,815.52,840,815.21,820.74,815.19ZM826,878.54c-12.38,6.38-58.89,13.43-44.34-19.33s53.56-37.11,59-26C850.32,852.76,838.34,872.17,826,878.54Z" transform="translate(-25.5 -25.5)"/><path class="cls-5" d="M620.51,840.23c-21,.15-43.16,3.89-41.39,30.92,1.92,29.41,18.26,49,39.89,49.28,36.7.09,53.37-11.94,54.52-31.3C674.87,866.57,646.84,840,620.51,840.23ZM615,904c-13-5-27-23-19.5-43.5C599.75,848.88,639,849,657,880S628,909,615,904Z" transform="translate(-25.5 -25.5)"/><path class="cls-6" d="M1067.6,425.13a13.21,13.21,0,0,1,6.48-2.74c18.27-3.5,4.08-26.7,19.54-31.91,8.17,10.38,4.57,23,6.71,34.57,10.41,10.89,27.3,4.41,38.15,14.11-17.28,11.75-46.62,10.86-45,42.47-13.72-7-4.88-26.19-18.24-33.38-15.45-2.86-33.45,7.81-46.36-8.62C1039.13,427.72,1057.31,436.83,1067.6,425.13Z" transform="translate(-25.5 -25.5)"/><path class="cls-7" d="M407.44,991.62c-10.41.09-21.17,1.86-31.18-.11-15.36-3-20.74-11.11-6.3-23.31a32.27,32.27,0,0,0,7.78,6c8.18,2,16.31,2.22,24.39-.53a30.37,30.37,0,0,0,7.47-6.41l-.54.48q12.53-9.81,25,0l-.66-.52c9.94,13.92,29.81,3.56,40.24,16.28-10.21,14.81-25.26,6.87-38.36,8.09Q421.39,1001.89,407.44,991.62Z" transform="translate(-25.5 -25.5)"/><path class="cls-8" d="M434.09,967.76h-25c3.34-15-9.61-42.14,11.4-42.52S430,952.68,434.09,967.76Z" transform="translate(-25.5 -25.5)"/><path class="cls-9" d="M407.44,991.62h27.87C428,1005,443,1033,419.19,1032.13,400.77,1031.5,413.25,1005.24,407.44,991.62Z" transform="translate(-25.5 -25.5)"/><path class="cls-10" d="M537.51,1039.6c18.45-7.47,36.79-15.39,57.35-14.76l17.64,7.94C587.9,1039.3,564.41,1058,537.51,1039.6Z" transform="translate(-25.5 -25.5)"/><path class="cls-11" d="M1093.62,390.48c-.64,9.13-.71,18.35-2,27.38-2.1,14.28-8.58,14.75-17.5,4.53C1075.64,386.35,1075.64,386.35,1093.62,390.48Z" transform="translate(-25.5 -25.5)"/><path class="cls-12" d="M1067.6,425.13c-4.83,26.13-25.15,11.35-38.68,14.5C1033.56,413,1054.32,428.94,1067.6,425.13Z" transform="translate(-25.5 -25.5)"/><path class="cls-10" d="M1075.28,448.25c23.51,1.7,14,21.27,18.23,33.37C1074.63,486.63,1074.63,486.63,1075.28,448.25Z" transform="translate(-25.5 -25.5)"/><path class="cls-1" d="M473.67,983.52c-15-1.64-36.28,12.26-40.24-16.28C446.79,972.8,469.27,956,473.67,983.52Z" transform="translate(-25.5 -25.5)"/><path class="cls-13" d="M618.69,1056.34q4.24,3.89,8.47,7.79c-13.64,10.4-27.58,20.13-50,24C588.61,1068.36,603,1061.55,618.69,1056.34Z" transform="translate(-25.5 -25.5)"/><path class="cls-14" d="M1138.48,439.16c-13.8-1.79-33,10.87-38.15-14.11C1114.57,425.69,1131.63,418.76,1138.48,439.16Z" transform="translate(-25.5 -25.5)"/><path class="cls-15" d="M899.42,967.22,890,959c9.51-7.81,25.86-13.61,29.79-3.87C925.36,968.89,908.59,966.17,899.42,967.22Z" transform="translate(-25.5 -25.5)"/><path class="cls-16" d="M650,1016.21c-7.14-1.25-19.07,1.67-19.69-6.64-1-13.75,12.74-7.51,20.2-9.84Z" transform="translate(-25.5 -25.5)"/><path class="cls-8" d="M409.6,967.27l-1.32,8.78c-13,5.31-25.92,5.78-38.81-.29a44.4,44.4,0,0,1,.49-7.56Z" transform="translate(-25.5 -25.5)"/><path class="cls-17" d="M716.69,1051.6c14.62-16.13,24.42-6.8,35.51.32C740.25,1062.68,729.33,1062.37,716.69,1051.6Z" transform="translate(-25.5 -25.5)"/><path class="cls-4" d="M369.47,975.76l38.81.29C395.24,990.23,382.3,989.64,369.47,975.76Z" transform="translate(-25.5 -25.5)"/><circle class="cls-18" cx="724.5" cy="724.5" r="697"/><circle class="cls-4" cx="598.5" cy="856.5" r="16"/><circle class="cls-4" cx="786.5" cy="830.5" r="16"/></svg>