<svg id="Layer_1" data-name="Layer 1" xmlns="http://www.w3.org/2000/svg" viewBox="0 0 1500 1500"><defs><style>.cls-1{fill:#f7b633;}.cls-2{fill:#fefefe;}</style></defs><path class="cls-1" d="M657.93,597.44c-6-7.34,6.35-22.17,20-26.26,14.33-4.33,28.91-3.5,44.92-3.55,30.2-2.31,59.26,8.82,88.87,17,5.66,1.53,11.72,4.48,15.66,8.67,6.75,7.19,19.31,11.67,16.7,24.28-2.76,13.4-16,16.11-26.45,19.36-30.15,9.51-60,2.22-89.51-4.38-12.9-2.86-25.61-6.5-38.32-10.15C675.81,618.47,666.5,607.88,657.93,597.44Z"/><path class="cls-1" d="M922.85,747.68c-19.12-17.49-42.12-28.43-65.62-36.8-33.94-12.12-68.42-21.72-104.72-27.09-39-5.77-78-10.1-117-12.56-41.14-2.56-82.17,4.77-122,14.82-20.89,5.32-34.28,21.23-37.14,43.94-2.61,21.09.74,40.25,19.41,53.25,8.86,6.16,18.37,12,28.37,15.81,34.88,13.11,70.1,23.8,107,31,55.66,10.88,110.93,19.41,167.73,17,31.33-2.17,63.15,4.39,94.13-7,35.22-12.91,37.24-16.7,39.71-55.17C933.58,771.67,934.52,758.37,922.85,747.68ZM901.37,775.9c-1.73,5.77-7.64,10.64-14.93,12.22-41.92,8.91-83.39,15.81-127.23,12.22a1127.41,1127.41,0,0,1-124.09-16.61c-38.27-7.38-75.56-20.73-109.6-40.88-5.32-3.15-13.55-7.73-11.43-15,2.22-7.73,10.94-10.73,18.67-13,31.72-9.65,64.14-13.4,94.53-10.89,55.32-2.66,106.1,9.27,157.28,19,20.94,4,40.45,11.33,60.49,17.63,17,5.37,31.68,14.19,45.87,24.49C895.31,768.17,902.75,771.22,901.37,775.9Z"/><path class="cls-1" d="M1184.76,792.8c-35.42-15.52-72.12-26.9-114.14-26.7-14.48-1.23-31.18,1.92-47.09,7.59-32.61,11.57-35.47,31.57-13.15,55.95,13.45,14.68,30.05,16.51,46,21.43,40.49,12.42,81.57,22.27,123.79,7.19,13.69-4.92,27.38-9.65,29-27.68C1211,811.32,1200.13,799.55,1184.76,792.8Zm-145.32,15.12c29.31-16.35,95.61-6.75,136.06,21C1125.84,834.77,1081,834.62,1039.44,807.92Z"/><path class="cls-1" d="M1478.05,919.84a221.47,221.47,0,0,0-42.27-55.27c-35.17-33.55-77.43-56.21-118.61-80.69-42.37-25.17-83.7-52.16-126.9-75.86-53.69-29.4-106-61.23-159.1-91.47-34.49-19.61-68.57-39.9-103.4-58.82-24.23-13.15-48.57-26.55-72-40.83-43-26.31-87.28-50.39-130.34-76.65-7.83-4.78-12.07-9.7-14.43-19.06-12.91-52-45.42-87.73-94.43-108.77-13.6-5.86-27.34-11.33-41-16.94-24.39-8.72-73.65-8.72-99.46,0-43,19.36-86.55,36.89-127.68,60.83-45.42,26.5-87.14,58-129.25,88.57C171,479.85,127.26,521,86.72,565,63,590.79,38.2,615.66,21.94,647.58,8.05,674.82,9.38,705.46,11.79,731.77c2.57,28.57,10.69,52.41,24.58,73.93,21.33,33,50.79,55.62,91.92,65.52,58.47,14.09,118.32,16,177,27,32.56,6.11,65.71,9.16,98.57,13.89,35.22,5.08,70.24,13.6,105.61,15,36,1.38,71.33,7.24,106.3,13,58.62,9.76,118,10.69,176.6,20.35,46,7.63,92.85,10.39,139.3,15.46,14.34,1.58,22.71,7.59,20,24.24-1.67,10.15-.79,20.84-.24,31.23,1.52,28.18,15.32,48.47,37.24,66.55,20.73,17.14,43.2,13.35,65.81,13.59,10.44.1,14.68,1.78,15.12,13.85,1.92,51.82,37.93,80,84.28,85.12,51,5.51,95.12-35.67,95.76-90.25.35-29.35.05-58.66.05-89,47.73,12.32,93.94,22.37,142.41,22.37,44,0,72.41-20.35,93.3-55.87C1485.34,975.8,1480.26,923.93,1478.05,919.84Zm-87.73,77.34c-45.42.49-90.3-7.34-134.14-19.95a131.09,131.09,0,0,0-39.5-5.32c-26.8.64-29.56,2.9-29.66,31-.1,39.85.25,79.7-.15,119.5-.14,12.46-4.23,23.6-16.1,30.35-10.1,5.81-21.38,5.61-29.07-1.48-11.33-10.44-21.67-22-21.28-40.15.94-44.13-.34-88.27.5-132.36.54-28.42-17.88-35.66-41.53-29-11,3.1-14.23,9.75-14,20.19.35,18.38.79,36.8,0,55.18-1.23,26.05-20.83,38.42-44,28-13.79-6.15-13.69-20.19-14.43-32.16-1.23-19.56-.29-39.21-.34-58.82-.15-23-8.43-31.18-30.89-34.28-38.86-5.42-77.39-14.09-116.35-17.19-29.06-2.32-58.08-4.34-86.94-8.33-32.37-4.43-65-7.19-97.14-12.81-20.54-3.59-41.08-.69-61.72-5-29.51-6.16-59.9-7.93-89.8-12-34.73-4.73-69.61-7.78-104.14-14.14-65.91-12.16-133.1-15.27-199-28.67-20.39-4.18-41.91-3.59-62.95-7.58-37.14-7-65.22-25.27-82.11-58.57-7.89-15.57-9.22-34-7.84-51.38,1.68-20.1,6-39.11,17.44-57.63,20.25-32.66,50.2-40.79,83.74-38.52,44.63,3,81.18,23.74,103.45,63.35,9.41,16.74,15.61,35.66,9.45,56.89-5.51,19-6.2,39.41-22.36,54-6.11,5.51-4.43,13.69.49,17.93,7.54,6.45,17.15,9.8,26.55,2,21-17.19,43.16-33.2,62.61-52.07,17.1-16.6,36.6-30.15,53.89-46.6,32.12-30.54,68.18-56.7,100.89-86.89,33.69-31.09,71.13-58.23,107-86.9,10.19-8.17,13.25-19,5.76-28.71-8.87-11.63-19.66-7.39-29.8,1.23-37.44,31.92-75.37,63.3-113,95.12-35.22,29.8-70.54,59.45-105.07,90.09-9.91,8.77-23.25,14.19-29.31,27.14-1.73,3.7-5.08,3.5-7.74,2.42-4.33-1.82-3.54-6.46-2.76-9.56,6-24.23-1.42-46.15-11.13-67.63-15.42-34.09-43.35-53.45-77.48-65.57-23-8.12-46.45-10.83-75.37-5.76,18.77-24.43,40.44-38,58.37-55.42,23-22.21,49.31-40.93,75.07-59.45,33.2-23.89,66.31-49,104.33-65.81,17.64-7.78,35.13-16.31,52.17-24.93,58.13-29.5,140.39-14,178.12,31.43,13.55,16.35,22.51,34.58,23.15,55.66.4,11.28,4.44,17.29,14.09,22.91,41.63,24.19,82.46,49.7,124.09,73.94,28.76,16.75,58.71,31.38,87.33,48.32,29.07,17.29,57.83,34.88,87.59,51,26.2,14.24,51.18,30.74,77.09,45.57,34.43,19.65,69,39,103,59.6,39.95,24.24,82.11,45,121.62,69.85,42.51,26.75,88.81,48.57,124.38,85.07,13,13.45,26.06,28.08,27.78,49.41C1425.09,987.37,1419.67,996.83,1390.32,997.18Z"/><path class="cls-2" d="M657.93,597.44c-6-7.34,6.35-22.17,20-26.26,14.33-4.33,28.91-3.5,44.92-3.55,30.2-2.31,59.26,8.82,88.87,17,5.66,1.53,11.72,4.48,15.66,8.67,6.75,7.19,19.31,11.67,16.7,24.28-2.76,13.4-16,16.11-26.45,19.36-30.15,9.51-60,2.22-89.51-4.38-12.9-2.86-25.61-6.5-38.32-10.15C675.81,618.47,666.5,607.88,657.93,597.44Z"/><path class="cls-2" d="M922.85,747.68c-19.12-17.49-42.12-28.43-65.62-36.8-33.94-12.12-68.42-21.72-104.72-27.09-39-5.77-78-10.1-117-12.56-41.14-2.56-82.17,4.77-122,14.82-20.89,5.32-34.28,21.23-37.14,43.94-2.61,21.09.74,40.25,19.41,53.25,8.86,6.16,18.37,12,28.37,15.81,34.88,13.11,70.1,23.8,107,31,55.66,10.88,110.93,19.41,167.73,17,31.33-2.17,63.15,4.39,94.13-7,35.22-12.91,37.24-16.7,39.71-55.17C933.58,771.67,934.52,758.37,922.85,747.68ZM901.37,775.9c-1.73,5.77-7.64,10.64-14.93,12.22-41.92,8.91-83.39,15.81-127.23,12.22a1127.41,1127.41,0,0,1-124.09-16.61c-38.27-7.38-75.56-20.73-109.6-40.88-5.32-3.15-13.55-7.73-11.43-15,2.22-7.73,10.94-10.73,18.67-13,31.72-9.65,64.14-13.4,94.53-10.89,55.32-2.66,106.1,9.27,157.28,19,20.94,4,40.45,11.33,60.49,17.63,17,5.37,31.68,14.19,45.87,24.49C895.31,768.17,902.75,771.22,901.37,775.9Z"/><path class="cls-2" d="M1184.76,792.8c-35.42-15.52-72.12-26.9-114.14-26.7-14.48-1.23-31.18,1.92-47.09,7.59-32.61,11.57-35.47,31.57-13.15,55.95,13.45,14.68,30.05,16.51,46,21.43,40.49,12.42,81.57,22.27,123.79,7.19,13.69-4.92,27.38-9.65,29-27.68C1211,811.32,1200.13,799.55,1184.76,792.8Zm-145.32,15.12c29.31-16.35,95.61-6.75,136.06,21C1125.84,834.77,1081,834.62,1039.44,807.92Z"/><path class="cls-1" d="M922.85,747.68c-19.12-17.49-42.12-28.43-65.62-36.8-33.94-12.12-68.42-21.72-104.72-27.09-39-5.77-78-10.1-117-12.56-41.14-2.56-82.17,4.77-122,14.82-20.89,5.32-34.28,21.23-37.14,43.94-2.61,21.09.74,40.25,19.41,53.25,8.86,6.16,18.37,12,28.37,15.81,34.88,13.11,70.1,23.8,107,31,55.66,10.88,110.93,19.41,167.73,17,31.33-2.17,63.15,4.39,94.13-7,35.22-12.91,37.24-16.7,39.71-55.17C933.58,771.67,934.52,758.37,922.85,747.68ZM901.37,775.9c-1.73,5.77-7.64,10.64-14.93,12.22-41.92,8.91-83.39,15.81-127.23,12.22a1127.41,1127.41,0,0,1-124.09-16.61c-38.27-7.38-75.56-20.73-109.6-40.88-5.32-3.15-13.55-7.73-11.43-15,2.22-7.73,10.94-10.73,18.67-13,31.72-9.65,64.14-13.4,94.53-10.89,55.32-2.66,106.1,9.27,157.28,19,20.94,4,40.45,11.33,60.49,17.63,17,5.37,31.68,14.19,45.87,24.49C895.31,768.17,902.75,771.22,901.37,775.9Z"/><path class="cls-1" d="M1184.76,792.8c-35.42-15.52-72.12-26.9-114.14-26.7-14.48-1.23-31.18,1.92-47.09,7.59-32.61,11.57-35.47,31.57-13.15,55.95,13.45,14.68,30.05,16.51,46,21.43,40.49,12.42,81.57,22.27,123.79,7.19,13.69-4.92,27.38-9.65,29-27.68C1211,811.32,1200.13,799.55,1184.76,792.8Zm-145.32,15.12c29.31-16.35,95.61-6.75,136.06,21C1125.84,834.77,1081,834.62,1039.44,807.92Z"/><path class="cls-1" d="M844,617.63c-2.76,13.4-16,16.11-26.45,19.36-30.15,9.51-60,2.22-89.51-4.38-12.9-2.86-25.61-6.5-38.32-10.15-13.94-4-23.25-14.58-31.82-25-6-7.34,6.35-22.17,20-26.26,14.33-4.33,28.91-3.5,44.92-3.55,30.2-2.31,59.26,8.82,88.87,17,5.66,1.53,11.72,4.48,15.66,8.67C834.08,600.54,846.64,605,844,617.63Z"/><path class="cls-1" d="M1478,919.82c14,22.09,14,56.57,7.32,78-20.93,35.53-49.3,55.87-93.31,55.87Z"/></svg>